<svg width="196" height="80" viewBox="0 0 196 80" fill="none" xmlns="http://www.w3.org/2000/svg">
<rect width="80" height="80" rx="40" fill="#171822"/>
<path d="M40.0129 10C32.1929 10 25.119 13.1552 20 18.26L23.627 21.877C27.8199 17.6957 33.582 15.1304 40.0129 15.1304C46.4437 15.1304 52.2058 17.6957 56.373 21.9026L60 18.2857C54.9068 13.1552 47.8328 10 40.0129 10ZM27.2797 25.5196L30.9068 29.1365C33.2476 26.8278 36.463 25.3913 40.0129 25.3913C43.5627 25.3913 46.7781 26.8278 49.119 29.1365L52.746 25.5196C49.4791 22.2617 44.9775 20.2609 40.0129 20.2609C35.0482 20.2609 30.5466 22.2617 27.2797 25.5196ZM40.0129 48.4783C38.6484 48.4783 37.3398 47.9377 36.375 46.9756C35.4102 46.0134 34.8682 44.7085 34.8682 43.3478C34.8682 41.9872 35.4102 40.6822 36.375 39.7201C37.3398 38.7579 38.6484 38.2174 40.0129 38.2174C41.3773 38.2174 42.6859 38.7579 43.6507 39.7201C44.6155 40.6822 45.1576 41.9872 45.1576 43.3478C45.1576 44.7085 44.6155 46.0134 43.6507 46.9756C42.6859 47.9377 41.3773 48.4783 40.0129 48.4783ZM47.7299 33.087H32.2958C31.6136 33.087 30.9593 33.3572 30.4769 33.8383C29.9945 34.3194 29.7235 34.9718 29.7235 35.6522V66.4348C29.7235 67.1151 29.9945 67.7676 30.4769 68.2487C30.9593 68.7297 31.6136 69 32.2958 69H47.7299C48.4121 69 49.0664 68.7297 49.5488 68.2487C50.0312 67.7676 50.3023 67.1151 50.3023 66.4348V35.6522C50.3023 34.9718 50.0312 34.3194 49.5488 33.8383C49.0664 33.3572 48.4121 33.087 47.7299 33.087Z" fill="white"/>
<path d="M90.459 64.0801C90.3359 65.3984 89.8818 66.4121 89.0967 67.1211C88.3115 67.8242 87.2451 68.1758 85.8975 68.1758C84.9893 68.1758 84.1836 67.9473 83.4805 67.4902C82.7832 67.0273 82.2412 66.374 81.8545 65.5303C81.4678 64.6807 81.2715 63.7109 81.2656 62.6211V60.6436C81.2656 59.5537 81.4561 58.5811 81.8369 57.7256C82.2178 56.8643 82.7598 56.1992 83.4629 55.7305C84.1719 55.2617 84.9834 55.0273 85.8975 55.0273C87.2334 55.0273 88.2969 55.3789 89.0879 56.082C89.8789 56.7852 90.3359 57.793 90.459 59.1055H89.9844C89.8496 57.9277 89.4395 57.0342 88.7539 56.4248C88.0684 55.8096 87.1162 55.502 85.8975 55.502C84.6553 55.502 83.6504 55.9707 82.8828 56.9082C82.1211 57.8457 81.7402 59.1025 81.7402 60.6787V62.5596C81.7402 63.5674 81.9102 64.4609 82.25 65.2402C82.5898 66.0137 83.0762 66.6172 83.709 67.0508C84.3477 67.4844 85.0771 67.7012 85.8975 67.7012C87.1221 67.7012 88.0771 67.3994 88.7627 66.7959C89.4541 66.1924 89.8613 65.2871 89.9844 64.0801H90.459ZM104.291 62.5596C104.291 63.667 104.092 64.6484 103.694 65.5039C103.301 66.3535 102.738 67.0127 102.006 67.4814C101.274 67.9443 100.43 68.1758 99.4748 68.1758C98.0334 68.1758 96.8674 67.6631 95.9768 66.6377C95.0861 65.6123 94.6408 64.2295 94.6408 62.4893V60.6436C94.6408 59.542 94.8371 58.5635 95.2297 57.708C95.6281 56.8525 96.1936 56.1934 96.926 55.7305C97.6643 55.2617 98.508 55.0273 99.4572 55.0273C100.412 55.0273 101.256 55.2617 101.988 55.7305C102.727 56.1934 103.295 56.8555 103.694 57.7168C104.092 58.5723 104.291 59.5479 104.291 60.6436V62.5596ZM103.817 60.626C103.817 59.0791 103.424 57.8398 102.639 56.9082C101.854 55.9707 100.793 55.502 99.4572 55.502C98.1389 55.502 97.0871 55.9678 96.302 56.8994C95.5168 57.8252 95.1242 59.0879 95.1242 60.6875V62.5596C95.1242 63.5791 95.3 64.4814 95.6516 65.2666C96.009 66.0459 96.5158 66.6465 97.1721 67.0684C97.8283 67.4902 98.5959 67.7012 99.4748 67.7012C100.811 67.7012 101.868 67.2354 102.648 66.3037C103.427 65.3721 103.817 64.1006 103.817 62.4893V60.626ZM118.238 68H117.763L109.501 56.0117V68H109.018V55.2031H109.501L117.763 67.165V55.2031H118.238V68ZM131.815 55.6777H127.157V68H126.682V55.6777H122.024V55.2031H131.815V55.6777ZM140.725 62.5244H136.287V68H135.812V55.2031H139.89C141.174 55.2031 142.193 55.5342 142.949 56.1963C143.711 56.8584 144.092 57.7578 144.092 58.8945C144.092 59.7676 143.819 60.5322 143.274 61.1885C142.735 61.8389 142.047 62.2432 141.209 62.4014L144.628 67.877V68H144.127L140.725 62.5244ZM136.287 62.0498H140.321C141.305 62.0498 142.099 61.751 142.703 61.1533C143.312 60.5557 143.617 59.8027 143.617 58.8945C143.617 57.8984 143.28 57.1133 142.606 56.5391C141.938 55.9648 141.021 55.6777 139.855 55.6777H136.287V62.0498ZM158.495 62.5596C158.495 63.667 158.296 64.6484 157.897 65.5039C157.505 66.3535 156.942 67.0127 156.21 67.4814C155.478 67.9443 154.634 68.1758 153.679 68.1758C152.237 68.1758 151.071 67.6631 150.181 66.6377C149.29 65.6123 148.845 64.2295 148.845 62.4893V60.6436C148.845 59.542 149.041 58.5635 149.434 57.708C149.832 56.8525 150.397 56.1934 151.13 55.7305C151.868 55.2617 152.712 55.0273 153.661 55.0273C154.616 55.0273 155.46 55.2617 156.192 55.7305C156.931 56.1934 157.499 56.8555 157.897 57.7168C158.296 58.5723 158.495 59.5479 158.495 60.6436V62.5596ZM158.021 60.626C158.021 59.0791 157.628 57.8398 156.843 56.9082C156.058 55.9707 154.997 55.502 153.661 55.502C152.343 55.502 151.291 55.9678 150.506 56.8994C149.721 57.8252 149.328 59.0879 149.328 60.6875V62.5596C149.328 63.5791 149.504 64.4814 149.855 65.2666C150.213 66.0459 150.72 66.6465 151.376 67.0684C152.032 67.4902 152.8 67.7012 153.679 67.7012C155.015 67.7012 156.072 67.2354 156.852 66.3037C157.631 65.3721 158.021 64.1006 158.021 62.4893V60.626ZM163.705 67.5254H170.271V68H163.222V55.2031H163.705V67.5254ZM181.238 64.1768H174.971L173.547 68H173.029L177.819 55.2031H178.399L183.189 68H182.67L181.238 64.1768ZM175.147 63.7021H181.062L178.109 55.7744L175.147 63.7021ZM193.945 61.6543H187.529V67.5254H194.841V68H187.054V55.2031H194.841V55.6777H187.529V61.1797H193.945V61.6543ZM192.969 53.999V54.0869H192.372L190.728 52.3643L189.102 54.0869H188.54V53.9639L190.561 51.8633H190.913L192.969 53.999Z" fill="#171822"/>
</svg>
